<svg version="1.1" id="Layer_1" xmlns="http://www.w3.org/2000/svg" xmlns:xlink="http://www.w3.org/1999/xlink" x="0px" y="0px"
	 width="100%" viewBox="0 0 512 512" enable-background="new 0 0 512 512" xml:space="preserve">
<path fill="#000000" opacity="1.000000" stroke="none" 
	d="
M513.000000,322.531342 
	C510.428589,335.211639 507.638336,347.329651 501.620544,358.460724 
	C484.108124,390.853394 457.332214,410.444000 420.793671,415.270416 
	C361.064453,423.159973 308.460419,382.988770 300.757111,322.972290 
	C295.519165,282.163544 310.411865,248.916107 343.232941,223.928574 
	C349.185364,219.396835 349.315155,219.550140 345.827271,212.983383 
	C343.023071,207.703751 340.192749,202.437973 337.262909,196.958237 
	C334.993530,197.886505 334.196808,199.803909 333.120667,201.358551 
	C307.619110,238.199188 282.093048,275.023224 256.740601,311.966339 
	C253.560654,316.600098 249.827377,318.609253 244.244843,318.419525 
	C235.591187,318.125458 226.918106,318.455872 218.255997,318.331299 
	C214.892761,318.282928 213.620636,319.568573 213.274490,322.937653 
	C208.527679,369.137878 170.703217,408.021179 124.305939,415.550079 
	C72.671173,423.928955 21.923761,393.210236 5.743970,343.155701 
	C3.590570,336.493866 2.411168,329.615356 1.116590,322.368652 
	C1.000000,313.979095 1.000000,305.958191 1.000000,297.468628 
	C3.418165,284.740997 6.138071,272.550140 12.204628,261.470978 
	C30.991196,227.161697 59.497459,207.424789 98.764030,203.536591 
	C113.318512,202.095383 127.294113,204.155807 140.981232,208.786194 
	C144.211685,209.879059 145.785965,209.248611 147.145187,206.154327 
	C150.760956,197.923019 154.783295,189.870102 158.388351,181.634369 
	C161.507477,174.508789 159.972672,166.889587 160.118790,159.468033 
	C160.162979,157.224014 158.623108,156.339935 156.438675,156.378738 
	C153.607376,156.429062 150.773148,156.411331 147.941895,156.347443 
	C142.069809,156.214935 138.600266,153.237869 138.488693,148.301895 
	C138.374207,143.238037 142.035950,139.817963 148.029282,139.711884 
	C155.025009,139.588058 162.024597,139.680756 169.022507,139.681396 
	C177.020111,139.682144 185.018143,139.635498 193.015213,139.702209 
	C199.730988,139.758224 203.766235,143.029755 203.772003,148.249588 
	C203.777390,153.118317 199.676712,156.293365 193.247009,156.353439 
	C189.581741,156.387680 185.900116,156.576447 182.254578,156.306976 
	C178.189270,156.006485 177.093719,157.763901 177.198242,161.571609 
	C177.477798,171.755524 176.214050,170.699081 186.321762,170.704636 
	C232.141418,170.729858 277.961090,170.717606 323.780762,170.712250 
	C330.636566,170.711456 330.645386,170.695312 330.652435,163.803436 
	C330.663330,153.139954 330.501709,142.472778 330.747803,131.814911 
	C330.837311,127.939461 329.346680,126.243126 325.812073,125.023140 
	C315.272919,121.385513 304.819580,117.488396 294.408173,113.495872 
	C288.968109,111.409737 286.965942,107.147972 288.781372,102.508232 
	C290.658722,97.710258 294.749115,96.110924 300.867798,98.285698 
	C309.963593,101.518646 318.957153,105.039001 327.996094,108.432076 
	C331.268829,109.660606 334.557098,110.848289 337.820526,112.100906 
	C345.781769,115.156700 347.100555,117.119789 347.110168,125.891167 
	C347.126831,141.053207 347.205017,156.215790 347.090332,171.376892 
	C347.061707,175.160873 347.806610,178.547928 349.597748,181.882370 
	C354.010315,190.097015 358.360565,198.351120 362.465942,206.721725 
	C364.048920,209.949295 365.719879,210.448029 369.078918,209.249847 
	C397.913208,198.964462 426.479065,199.925171 453.872040,213.601196 
	C485.308777,229.296097 504.598480,254.804337 511.451080,289.460327 
	C511.837128,291.412598 512.313782,293.346954 512.874146,295.644836 
	C513.000000,304.687561 513.000000,313.375122 513.000000,322.531342 
M421.794312,220.812286 
	C404.876862,217.521088 388.610382,219.651276 372.370483,226.047333 
	C373.302948,228.134888 373.840149,229.521515 374.520844,230.833694 
	C383.648193,248.428650 392.821777,265.999695 401.925720,283.606750 
	C405.824890,291.147736 409.771057,298.674103 413.340118,306.372070 
	C415.181274,310.343140 413.361511,314.632019 409.757843,316.617706 
	C406.017853,318.678497 401.957733,317.732971 399.217346,313.962769 
	C398.051300,312.358521 397.180725,310.529053 396.261230,308.757599 
	C384.903687,286.877319 373.583344,264.977600 362.190338,243.115814 
	C360.680725,240.219040 359.458984,237.093460 356.834534,234.451035 
	C355.332214,235.415405 353.919769,236.241394 352.591949,237.186295 
	C322.882202,258.327911 309.656128,296.384430 319.132507,333.418549 
	C331.715149,382.592285 387.262024,412.015045 434.955048,394.768829 
	C477.397491,379.421326 501.163574,339.855927 494.797028,295.144897 
	C489.554688,258.328949 458.542694,226.481888 421.794312,220.812286 
M130.967621,239.559753 
	C133.159912,234.806961 135.352203,230.054153 137.541351,225.308212 
	C108.163033,212.644226 65.628166,220.033768 38.623302,251.184540 
	C13.042925,280.692169 10.273539,325.830780 32.553013,359.451538 
	C54.448948,392.493561 96.257996,407.338257 133.896912,395.679504 
	C175.162094,382.897491 195.664719,344.825287 195.875565,319.030792 
	C193.885727,317.876038 191.671936,318.382416 189.560852,318.379425 
	C163.241348,318.342224 136.921768,318.371063 110.602242,318.353180 
	C100.036774,318.346008 96.599815,312.852173 101.158478,303.091766 
	C110.952072,282.123047 120.834061,261.195618 130.967621,239.559753 
M287.343079,236.876846 
	C298.548615,220.637070 309.754181,204.397293 321.583679,187.253235 
	C318.620392,187.253235 316.838257,187.253555 315.056122,187.253189 
	C300.732483,187.250183 286.408875,187.244568 272.085236,187.244461 
	C240.939651,187.244217 209.793808,187.306061 178.648819,187.169983 
	C174.929825,187.153732 172.944763,188.346222 171.497070,191.770935 
	C168.777206,198.205154 165.889160,204.606049 162.514450,210.713211 
	C160.006317,215.252106 161.212555,217.494431 165.316208,220.178299 
	C183.946625,232.362915 197.464813,248.889053 205.870361,269.546173 
	C209.144974,277.593719 211.546936,285.874359 212.379623,294.548279 
	C212.802841,298.957123 214.332169,301.401672 219.524353,300.987854 
	C225.979477,300.473419 232.508377,300.742096 239.000290,300.892792 
	C242.147675,300.965820 244.180725,299.900970 245.998245,297.222015 
	C259.553040,277.242859 273.265686,257.370758 287.343079,236.876846 
M124.048347,293.447632 
	C123.223068,295.557281 121.584892,297.389099 121.736740,299.853607 
	C122.528679,300.778198 123.527718,300.845337 124.519012,300.845642 
	C147.316315,300.852814 170.113693,300.822052 192.910843,300.878357 
	C196.610321,300.887512 196.897339,298.903198 196.436005,295.996613 
	C193.848236,279.692841 187.358658,265.118744 176.883286,252.394028 
	C170.312332,244.412125 162.616379,237.697083 152.972580,232.531876 
	C143.307114,252.874557 133.830566,272.819641 124.048347,293.447632 
z"/>
</svg>