<svg version="1.1" id="Layer_1" xmlns="http://www.w3.org/2000/svg" xmlns:xlink="http://www.w3.org/1999/xlink" x="0px" y="0px"
	 width="100%" viewBox="0 0 512 512" enable-background="new 0 0 512 512" xml:space="preserve">
<path fill="#000000" opacity="1.000000" stroke="none" 
	d="
M266.000000,513.000000 
	C260.645081,513.000000 255.290146,513.000000 249.149811,512.843506 
	C247.431046,512.329163 246.510880,511.931213 245.562347,511.619568 
	C229.614700,506.379211 221.034149,494.965576 218.838272,478.740356 
	C216.861725,464.135742 224.656616,447.964874 238.667740,442.020966 
	C248.138580,438.003174 249.923264,432.371826 248.772568,423.776581 
	C248.640930,422.793304 248.704346,421.777832 248.739655,420.779480 
	C248.838608,417.982361 247.697617,416.450562 244.728409,416.216980 
	C241.084213,415.930267 237.446732,415.463898 233.832443,414.906128 
	C203.997314,410.301910 177.377045,398.496185 154.315140,378.964111 
	C150.991928,376.149536 148.836319,376.476929 145.947845,379.426666 
	C135.571503,390.023071 125.068420,400.497833 114.474869,410.877380 
	C111.800667,413.497589 111.200630,415.728241 113.231926,419.111084 
	C118.841766,428.453522 120.533516,438.805450 119.128822,449.440491 
	C115.480385,477.062988 89.304527,495.600677 61.797390,490.372345 
	C34.834625,485.247467 17.515820,458.110718 24.072815,431.261810 
	C31.575504,400.540558 65.405884,385.551727 94.140327,400.416138 
	C98.046974,402.437012 100.512840,402.317993 103.629219,399.091125 
	C113.929848,388.425201 124.473969,377.992065 135.036545,367.583130 
	C137.588928,365.067841 138.141647,363.378082 135.483337,360.206085 
	C114.510925,335.180939 101.816261,306.538300 98.462257,273.893677 
	C97.573296,265.241333 97.384972,265.260986 88.388870,265.274231 
	C86.722336,265.276672 85.032646,265.454712 83.393623,265.242676 
	C78.580032,264.620056 76.085045,266.309235 74.218590,271.194153 
	C65.489388,294.040314 37.545040,302.387604 17.312487,288.742676 
	C8.976963,283.121155 4.583500,274.908203 1.000000,266.000000 
	C1.000000,260.311951 1.000000,254.623917 1.129809,248.141968 
	C1.688527,246.450455 2.195693,245.581360 2.534668,244.650986 
	C8.104945,229.362442 19.245029,220.494888 35.122231,218.935913 
	C51.274239,217.349976 65.290565,223.669128 71.827652,238.581573 
	C76.161545,248.468048 81.964073,249.643753 90.508072,248.806320 
	C91.003525,248.757751 91.511497,248.750320 92.006538,248.797806 
	C95.956329,249.176636 97.852028,247.566788 97.883049,243.427444 
	C97.905296,240.457718 98.483597,237.481812 98.935173,234.527206 
	C103.546425,204.356140 115.407600,177.417542 135.142410,154.074249 
	C137.767029,150.969757 137.607361,148.881729 134.758148,146.091385 
	C124.044212,135.598785 113.461014,124.970886 102.943329,114.281029 
	C100.458580,111.755615 98.380173,111.253998 95.133522,113.171761 
	C85.303947,118.977997 74.456093,120.928024 63.339394,118.902649 
	C35.417927,113.815582 18.195257,88.805573 23.854061,61.075176 
	C27.494864,43.233803 38.617424,31.206396 55.906067,25.195772 
	C61.420021,23.278770 65.444344,24.863708 67.308395,29.173840 
	C69.432175,34.084538 67.148125,37.967758 60.877819,40.470074 
	C47.790981,45.692692 40.045300,55.038364 39.132114,69.388763 
	C38.176937,84.399055 47.889984,98.050819 62.339375,102.249878 
	C76.544510,106.377968 92.321815,99.715187 99.401268,86.598572 
	C106.668533,73.134010 103.888504,57.027473 92.562500,47.048725 
	C91.313179,45.948017 89.934456,44.985302 88.748863,43.822823 
	C85.185379,40.328785 84.747955,36.102200 87.500038,32.642292 
	C90.089607,29.386721 94.252426,28.762218 98.294609,31.119043 
	C99.583008,31.870253 100.789139,32.786808 101.948677,33.731144 
	C119.755379,48.233074 124.761612,73.599876 113.571083,94.285667 
	C111.410927,98.278748 111.829071,100.652725 115.005135,103.714729 
	C125.200249,113.543724 135.110077,123.668503 145.138016,133.671082 
	C149.960495,138.481384 149.967575,138.471863 155.254181,134.092255 
	C178.539993,114.801437 205.276535,103.293587 235.097229,98.825668 
	C248.816254,96.770195 248.621124,96.848137 248.865143,82.874390 
	C248.949493,78.043175 247.183167,75.966240 242.790787,74.206795 
	C228.125473,68.332344 219.953201,56.976635 218.841110,41.409096 
	C217.725739,25.795879 224.484680,13.639545 238.037476,5.589587 
	C241.163971,3.732541 244.669113,2.512936 248.000000,0.999997 
	C253.354935,1.000000 258.709869,1.000000 264.846130,1.161149 
	C267.049927,1.790791 268.497192,2.195490 269.891052,2.737572 
	C284.988861,8.609226 293.786377,19.754023 295.133057,35.713871 
	C296.464691,51.495277 290.206848,65.147179 275.805298,71.652565 
	C265.799316,76.172394 264.200562,82.126740 265.286407,91.087677 
	C265.306305,91.251930 265.306396,91.422363 265.288300,91.586884 
	C264.845673,95.606819 266.214264,97.528473 270.674255,97.960625 
	C304.602173,101.247986 334.782715,113.666908 360.794403,135.829544 
	C363.661224,138.272186 365.442047,137.103516 367.536041,135.001556 
	C378.115936,124.381439 388.662109,113.725288 399.402679,103.269295 
	C402.296234,100.452393 402.654449,98.134918 400.608276,94.606934 
	C394.307343,83.742821 393.141846,71.991127 395.748169,59.848320 
	C400.627228,37.117214 423.727570,20.468580 447.038666,22.759344 
	C471.283936,25.141909 490.510742,45.020390 491.328949,68.550804 
	C492.658112,106.775230 453.441162,131.495605 419.732941,113.528419 
	C415.718231,111.388481 413.351562,111.920929 410.315338,115.051170 
	C399.994415,125.691498 389.492249,136.161957 378.843140,146.474060 
	C375.975861,149.250565 376.277435,151.011688 378.668427,153.870117 
	C399.619873,178.918045 412.245392,207.553238 415.503693,240.193359 
	C416.364136,248.813019 416.525543,248.797607 425.150299,248.806976 
	C427.149353,248.809158 429.169342,248.618896 431.143219,248.841141 
	C435.591919,249.341995 437.931061,247.707779 439.592651,243.273895 
	C446.725861,224.238831 466.930023,214.530960 486.325256,220.409943 
	C500.739502,224.779099 508.876526,235.021210 513.000000,249.000000 
	C513.000000,254.022095 513.000000,259.044189 512.894165,264.873535 
	C510.273315,273.384186 506.776215,280.500641 500.443878,285.853271 
	C479.548187,303.515961 449.041626,295.621826 439.224579,269.998383 
	C438.303741,267.594940 437.628143,265.227142 434.324677,265.289062 
	C429.660980,265.376404 424.994446,265.323517 420.329163,265.308533 
	C417.668579,265.300018 416.401154,266.626953 416.209900,269.251862 
	C416.089294,270.906921 415.642700,272.535980 415.474762,274.190125 
	C412.215546,306.289764 399.876953,334.596619 379.294495,359.252502 
	C375.931915,363.280518 376.448395,365.233673 379.811066,368.479614 
	C389.639832,377.967316 399.206818,387.727448 408.825470,397.431305 
	C415.744324,404.411407 414.636475,402.886078 421.315460,399.560333 
	C433.386292,393.549866 445.912079,392.960754 458.662140,397.137878 
	C464.157043,398.938080 466.551575,403.110901 465.078339,407.809113 
	C463.739990,412.077148 459.289185,413.953583 454.004456,412.470978 
	C453.203186,412.246185 452.417267,411.965393 451.613159,411.752350 
	C430.640869,406.196198 410.208740,421.774445 410.387543,443.179871 
	C410.507324,457.521698 421.474915,471.153595 435.474915,474.361664 
	C449.969696,477.683075 465.052490,470.632660 471.625732,457.412201 
	C475.409149,449.802826 476.106995,441.956482 473.904968,433.671448 
	C472.322632,427.717987 474.499268,423.751099 479.230133,422.484528 
	C484.163391,421.163788 487.755951,423.769928 489.491882,429.978973 
	C491.445801,436.967590 491.969696,443.978363 490.494110,451.186310 
	C486.390900,471.229736 474.544830,484.370544 454.922455,489.572723 
	C435.386749,494.751984 418.637177,488.918427 405.597198,473.587433 
	C392.686798,458.408691 390.963684,437.467590 400.585266,419.340607 
	C401.986908,416.699860 403.170654,414.471252 400.443573,411.789185 
	C389.039124,400.573090 377.745667,389.243774 366.462799,377.904907 
	C364.498627,375.930969 363.036682,376.176727 360.973358,377.931885 
	C335.655823,399.468384 306.532257,412.180450 273.391205,415.632812 
	C265.226715,416.483276 265.251373,416.720978 265.265533,425.116425 
	C265.268921,427.115997 265.486725,429.142853 265.235138,431.109741 
	C264.624176,435.886383 266.709351,438.054504 271.205231,439.788300 
	C295.357727,449.102631 303.009216,479.494110 286.642334,499.514069 
	C281.126251,506.261414 273.732147,509.811646 266.000000,513.000000 
M375.718933,337.242859 
	C398.551361,302.523254 405.984375,264.868713 396.593536,224.283981 
	C379.479919,150.323532 306.769257,102.416512 232.155777,115.722931 
	C158.251602,128.902878 107.715401,196.419891 114.171677,268.917053 
	C116.744560,297.807922 126.548920,323.781982 144.928848,346.086151 
	C178.462631,386.779694 221.910538,405.237488 274.324249,399.262543 
	C316.962738,394.401947 350.531342,372.910126 375.718933,337.242859 
M74.220634,474.829681 
	C87.682358,473.445465 96.744759,466.059052 101.451530,453.712738 
	C106.091263,441.542297 103.404671,430.230774 94.599556,420.891632 
	C85.657578,411.407379 74.449699,408.269562 61.762596,412.036102 
	C45.898571,416.745758 36.470062,432.338226 39.516983,449.173248 
	C42.017296,462.988190 55.319984,476.368683 74.220634,474.829681 
M464.519043,95.025246 
	C471.829865,88.139854 475.829193,79.607040 475.074249,69.644310 
	C473.549286,49.520611 457.712097,36.793022 437.635498,39.428703 
	C420.745270,41.646069 408.534882,57.958645 410.718658,74.070419 
	C414.383575,101.110550 442.328156,112.061417 464.519043,95.025246 
M234.818329,473.889313 
	C235.013260,476.026978 235.007645,478.205872 235.436905,480.295380 
	C237.598740,490.818695 249.639648,499.228943 259.692291,497.340515 
	C272.583618,494.918854 280.957489,483.858887 278.882690,471.994293 
	C276.856750,460.408844 268.267365,453.146210 256.681946,453.222778 
	C245.172012,453.298828 236.917099,460.860809 234.818329,473.889313 
M236.107529,46.140430 
	C240.742554,56.884548 248.864685,61.777058 260.193115,60.648819 
	C271.164734,59.556118 280.748688,47.604557 279.213989,36.929012 
	C277.299622,23.612255 265.546661,14.442051 253.563034,16.914860 
	C239.631882,19.789547 233.105804,30.252462 236.107529,46.140430 
M488.271606,274.830383 
	C497.594482,267.100189 500.078339,256.139557 494.712341,246.409103 
	C489.552917,237.053131 478.359985,232.553268 468.198792,236.010284 
	C459.964172,238.811859 454.799255,244.654266 453.464661,253.251144 
	C452.012421,262.606232 455.136780,270.473816 463.264954,275.586517 
	C471.293427,280.636475 479.607452,280.359344 488.271606,274.830383 
M39.406509,234.964249 
	C26.062757,234.331314 15.745440,245.641968 16.614594,258.490173 
	C17.437601,270.656281 27.692440,279.367188 39.450634,279.007446 
	C50.922619,278.656525 60.251865,269.730713 60.720512,258.657440 
	C61.271530,245.637909 53.426212,236.560501 39.406509,234.964249 
z"/>
<path fill="#000000" opacity="1.000000" stroke="none" 
	d="
M347.088806,281.206635 
	C349.312286,287.283966 349.945068,293.270111 350.040710,299.241364 
	C350.248779,312.232391 350.180878,325.229736 350.072510,338.223236 
	C349.996063,347.388000 347.206940,350.057556 337.955872,350.069641 
	C318.297638,350.095276 298.639343,350.062439 278.981079,350.030518 
	C277.320099,350.027802 275.636749,349.992889 274.002869,349.729950 
	C269.286316,348.971069 266.631073,345.997253 266.675690,341.713409 
	C266.718689,337.584991 269.615631,334.405609 274.233917,333.850891 
	C276.865204,333.534882 279.556458,333.689148 282.220795,333.682739 
	C291.580566,333.660217 291.579620,333.668610 291.623474,324.545807 
	C291.629089,323.379761 291.573914,322.206726 291.679413,321.049011 
	C292.064514,316.822632 295.114868,313.841766 299.103302,313.723969 
	C303.342896,313.598755 306.868500,316.556000 307.262909,320.877502 
	C307.519409,323.688354 307.416138,326.537598 307.376984,329.368286 
	C307.336853,332.270447 308.653595,333.673157 311.586060,333.656555 
	C317.583130,333.622589 323.580627,333.630585 329.577789,333.658966 
	C332.585876,333.673187 333.673523,332.070984 333.661835,329.249176 
	C333.613525,317.587860 334.006073,305.909790 333.508850,294.268951 
	C332.861267,279.106445 318.694397,265.470215 303.541931,265.371948 
	C272.556702,265.170959 241.568359,265.174530 210.583069,265.371796 
	C194.788925,265.472351 180.646118,279.835785 180.385010,295.635284 
	C180.206100,306.461182 180.446716,317.294037 180.264557,328.119843 
	C180.196060,332.190857 181.641602,333.896301 185.787766,333.722717 
	C190.943237,333.506836 196.118271,333.547577 201.277725,333.707703 
	C205.056793,333.824982 206.916229,332.438629 206.650436,328.478882 
	C206.494659,326.158203 206.533096,323.808655 206.690720,321.486115 
	C207.012390,316.746948 210.318008,313.631592 214.751541,313.719696 
	C218.967361,313.803467 222.010574,316.875336 222.356812,321.398132 
	C222.369522,321.564087 222.365814,321.731201 222.374268,321.897522 
	C222.971725,333.654175 222.971802,333.644012 235.101196,333.683044 
	C237.585403,333.691010 240.072693,333.516022 242.471252,334.582428 
	C245.946259,336.127472 247.604736,338.702423 247.309982,342.469330 
	C247.033188,346.006531 245.154022,348.430847 241.722549,349.292267 
	C239.649521,349.812714 237.445892,350.007202 235.300049,350.013031 
	C215.641922,350.066437 195.983475,350.085693 176.325363,350.031036 
	C166.493866,350.003693 163.824966,347.409515 163.945312,337.500763 
	C164.129242,322.355347 163.346680,307.208893 164.566254,292.060272 
	C166.252182,271.118866 184.315079,252.093582 205.316742,249.599838 
	C208.381210,249.235962 211.427917,248.722473 215.451340,248.137360 
	C201.013306,231.982788 195.599213,213.919296 199.909393,193.520599 
	C202.642029,180.587997 209.466980,169.823257 219.711761,161.365280 
	C241.161362,143.656723 272.554871,143.420883 293.899475,161.054504 
	C307.133118,171.987320 314.394623,186.167877 315.367523,203.416748 
	C316.326111,220.411301 310.340820,234.942673 298.301910,248.369476 
	C321.663849,249.764221 338.483185,259.316772 347.088806,281.206635 
M237.438370,244.079681 
	C253.271347,251.588104 268.578613,250.745377 282.570435,240.062256 
	C296.337708,229.550568 301.609985,215.185913 298.529877,198.168304 
	C294.426544,175.497299 271.053955,160.042297 248.822357,164.919159 
	C229.815445,169.088638 217.600876,182.340576 214.723969,203.091019 
	C212.928635,216.040497 219.624420,234.292984 237.438370,244.079681 
z"/>
</svg>