<svg version="1.1" id="Layer_1" xmlns="http://www.w3.org/2000/svg" xmlns:xlink="http://www.w3.org/1999/xlink" x="0px" y="0px"
	 width="100%" viewBox="0 0 512 512" enable-background="new 0 0 512 512" xml:space="preserve">
<path fill="#F6F6F6" opacity="1.000000" stroke="none" 
	d="
M220.969604,1.395883 
	C316.944275,1.000000 412.888611,1.031347 508.832642,0.885153 
	C512.662354,0.879318 513.079956,1.948200 513.077942,5.327931 
	C512.987976,157.572815 513.000000,309.817749 513.000000,462.531342 
	C510.909393,463.148254 510.794952,461.274323 510.138367,460.074402 
	C507.928986,456.036865 504.748352,452.859283 501.177277,450.108185 
	C497.850861,447.545654 494.300781,447.671356 492.171661,450.226471 
	C489.719147,453.169708 490.490753,456.083740 492.588165,458.880341 
	C498.174225,466.328430 498.176514,466.334778 491.400635,473.107941 
	C484.329132,480.176697 477.317963,487.306854 470.163696,494.291443 
	C466.196869,498.164185 464.836121,498.230865 461.002441,494.437073 
	C445.367096,478.964417 429.817627,463.404724 414.336517,447.777771 
	C410.375671,443.779602 410.415619,442.206696 414.382996,438.163727 
	C422.319580,430.075897 430.320648,422.049438 438.427795,414.132629 
	C442.264099,410.386383 443.748199,410.418823 447.641449,414.190948 
	C453.744965,420.104584 459.679382,426.190918 465.702820,432.186646 
	C467.001160,433.479004 468.258972,434.819824 469.770844,435.875977 
	C472.236237,437.598145 474.763855,437.769714 477.148041,435.838135 
	C479.728729,433.747345 479.885406,431.021973 478.663330,428.148071 
	C477.865082,426.270782 476.367401,424.891663 474.954346,423.477448 
	C453.752472,402.258392 432.568481,381.021393 411.310608,359.858521 
	C403.869598,352.450775 400.590240,351.891022 390.950836,356.141632 
	C388.411072,357.261566 386.387268,356.667572 384.570923,354.924500 
	C377.356781,348.001373 370.338715,340.880493 363.334015,333.746185 
	C360.222168,330.576782 361.687347,327.770111 363.810608,324.878723 
	C371.318939,314.654083 378.033295,303.959869 383.706940,292.577850 
	C390.284271,279.382935 395.195221,265.622284 398.943024,251.401352 
	C400.517181,245.428131 401.475647,244.611420 407.574463,244.616959 
	C422.237549,244.630310 436.902618,244.339706 451.563629,244.775681 
	C456.562408,244.924332 459.936218,242.700668 460.005432,239.094330 
	C460.071167,235.670822 456.649872,232.643127 451.948700,232.518127 
	C441.787567,232.247986 431.619659,232.454102 421.454590,232.417725 
	C417.121948,232.402222 412.789307,232.412689 408.456573,232.395950 
	C404.812622,232.381866 403.076355,231.149445 403.333038,227.004364 
	C404.015533,215.982330 404.243011,215.584991 415.329163,215.583099 
	C438.659485,215.579117 461.989777,215.585663 485.320099,215.576111 
	C487.314819,215.575287 489.342499,215.751541 491.273590,215.104584 
	C494.114044,214.152954 495.767059,212.134674 495.653809,209.130020 
	C495.539001,206.083160 493.679749,204.279068 490.717010,203.683319 
	C488.743988,203.286560 486.731018,203.422699 484.733429,203.422073 
	C460.903168,203.414551 437.072815,203.454163 413.242828,203.371857 
	C410.400238,203.362045 406.602020,204.463913 405.312866,200.862854 
	C403.910553,196.945648 403.895203,192.587128 405.483337,188.631821 
	C406.439636,186.250092 409.124237,186.631836 411.246521,186.618225 
	C423.577911,186.539185 435.909790,186.595764 448.241516,186.578552 
	C450.742279,186.575058 453.268982,186.654877 455.618866,185.604736 
	C458.036774,184.524170 459.938049,182.871796 459.942688,180.023224 
	C459.947327,177.183182 458.071564,175.512131 455.662537,174.402817 
	C453.478912,173.397278 451.125458,173.425415 448.789581,173.423004 
	C435.957916,173.409729 423.126099,173.452820 410.294586,173.403427 
	C403.192047,173.376099 402.545502,172.734177 401.156219,165.709824 
	C395.110992,135.145081 383.075653,107.243721 364.054199,82.459015 
	C362.938965,81.005890 361.906982,79.470970 360.437408,78.338600 
	C358.073090,76.516792 355.557159,76.121086 353.099670,78.044540 
	C350.720947,79.906372 350.168884,82.401840 351.222748,85.213898 
	C351.874329,86.952690 353.046204,88.386597 354.165405,89.836533 
	C374.955383,116.770920 386.958038,147.387024 391.000183,180.960037 
	C395.363586,217.201111 389.510712,251.940033 373.621094,284.962311 
	C357.022888,319.457123 332.193665,346.406067 299.464386,365.981079 
	C274.483978,380.921570 247.374878,389.305634 218.229752,391.613647 
	C185.211014,394.228424 153.766495,388.613312 123.954895,374.592468 
	C84.648827,356.106262 55.017994,327.418671 35.180504,288.606384 
	C23.866114,266.469635 17.363527,243.139893 15.460082,218.379318 
	C11.627336,168.521866 25.389742,123.916931 56.633663,85.213570 
	C88.963791,45.164658 131.236832,21.921991 182.487946,15.896038 
	C217.195877,11.815182 250.496353,17.441244 282.318390,32.043900 
	C299.114563,39.751411 314.429718,49.622066 328.297089,61.791943 
	C329.426758,62.783329 330.531219,63.810368 331.943146,64.387840 
	C334.522125,65.442650 336.913788,65.109779 338.787231,63.003342 
	C340.634125,60.926830 340.788422,58.500031 339.587616,56.015038 
	C338.839264,54.466373 337.450623,53.494328 336.196503,52.398396 
	C304.501312,24.701271 267.624268,8.693302 225.949921,3.490377 
	C224.173691,3.268620 222.217834,3.509735 220.969604,1.395883 
z"/>
<path fill="#F6F6F6" opacity="1.000000" stroke="none" 
	d="
M462.035187,512.591736 
	C309.755432,513.000000 157.510834,512.984924 5.266330,513.092773 
	C1.713074,513.095276 0.893246,512.427368 0.898200,508.771057 
	C1.026840,413.826599 1.000000,318.881958 1.000000,223.468658 
	C4.505013,224.034958 3.701131,227.295334 3.993678,229.599625 
	C6.085445,246.075729 10.332335,261.966858 16.485222,277.356445 
	C24.715143,297.941132 35.798309,316.831848 50.293552,333.665192 
	C79.639374,367.744568 116.229805,389.800934 160.065292,399.855774 
	C165.711319,401.150879 166.397629,402.013702 166.431702,408.133148 
	C166.505035,421.299042 166.443954,434.465454 166.462738,447.631653 
	C166.465820,449.794586 166.305527,452.000244 167.117859,454.060272 
	C168.254395,456.942352 170.257217,458.888153 173.541306,458.585663 
	C176.730789,458.291901 177.965073,455.961792 178.365906,453.077606 
	C178.619049,451.256073 178.539124,449.417450 178.541138,447.585083 
	C178.554703,435.252197 178.471252,422.918823 178.580322,410.586639 
	C178.634613,404.446747 180.165649,403.190002 186.145706,403.871063 
	C196.447083,405.044250 196.452988,405.044250 196.454971,415.311462 
	C196.459305,437.810669 196.455414,460.309875 196.457977,482.809082 
	C196.458176,484.475342 196.421829,486.142700 196.538498,487.807098 
	C196.759445,490.959259 198.107224,493.427338 201.417313,493.842712 
	C204.945847,494.285461 206.970444,492.087982 207.998230,488.933838 
	C208.733185,486.678314 208.536743,484.312958 208.537872,481.984406 
	C208.548935,459.151855 208.518204,436.319275 208.575165,413.486847 
	C208.582031,410.734375 207.639709,407.128571 210.505402,405.667877 
	C214.190460,403.789520 218.595078,403.463684 222.682220,404.258820 
	C225.863205,404.877686 225.396805,408.088470 225.415070,410.510559 
	C225.506821,422.676300 225.446442,434.842773 225.458557,447.009003 
	C225.460220,448.674927 225.381653,450.348389 225.616287,452.002472 
	C226.174698,455.939026 228.736038,458.623627 231.896774,458.642181 
	C235.170044,458.661407 237.232819,456.204468 237.465576,451.687653 
	C237.688568,447.360840 237.533752,443.023041 237.540314,438.690125 
	C237.555206,428.857147 237.493607,419.023865 237.565292,409.191315 
	C237.611816,402.809387 238.377182,401.827393 244.738983,400.479126 
	C268.142029,395.519257 289.856842,386.458191 310.191040,373.924438 
	C315.453217,370.680847 320.488770,367.138733 325.382507,363.389252 
	C328.743713,360.813904 331.633881,361.021454 334.627625,364.056641 
	C341.064026,370.582092 347.584534,377.025177 354.054993,383.517731 
	C356.715240,386.187073 357.576477,388.839111 355.385620,392.396973 
	C352.125397,397.691437 352.998596,402.898224 356.678131,407.742218 
	C357.993713,409.474152 359.551270,410.982819 361.082794,412.514526 
	C391.485077,442.921295 421.921814,473.293793 452.246948,503.777283 
	C455.320618,506.866974 459.122925,509.005859 462.035187,512.591736 
z"/>
<path fill="#050505" opacity="1.000000" stroke="none" 
	d="
M462.428467,513.000000 
	C457.914093,511.011658 454.786530,507.848083 451.627716,504.685760 
	C420.421967,473.445740 389.187469,442.234467 357.969299,411.006836 
	C350.435242,403.470520 349.830780,399.049133 355.371094,389.990997 
	C356.326508,388.428986 355.952087,387.735168 354.896942,386.685669 
	C347.100128,378.930756 339.270844,371.206299 331.604309,363.323883 
	C328.983398,360.629181 327.714478,363.351562 326.314209,364.418243 
	C309.381317,377.317200 290.916473,387.345459 270.851318,394.444366 
	C261.757782,397.661621 252.522095,400.381866 243.010483,402.008514 
	C240.011063,402.521484 238.983734,403.665558 239.026047,406.843292 
	C239.218979,421.337189 239.116730,435.835114 239.103287,450.331604 
	C239.097031,457.062164 236.506989,460.468323 231.521378,460.376648 
	C226.655197,460.287170 224.098862,456.758698 224.093536,450.051697 
	C224.082703,436.388306 224.000244,422.723846 224.161118,409.062317 
	C224.198349,405.899872 223.589615,404.786652 220.123657,405.126953 
	C209.813095,406.139404 209.798203,405.989594 209.798416,416.608643 
	C209.798843,439.436493 209.799698,462.264374 209.799637,485.092224 
	C209.799637,487.086884 209.934921,489.094391 209.092865,490.993073 
	C207.647797,494.251434 205.055313,496.006866 201.600967,495.659882 
	C197.984619,495.296661 195.425415,493.210236 194.921616,489.351257 
	C194.707291,487.709534 194.784882,486.025543 194.784378,484.360748 
	C194.777145,459.866638 194.712677,435.372131 194.852264,410.878815 
	C194.872650,407.304779 194.291214,405.688782 190.191269,405.416870 
	C180.154480,404.751190 180.172531,404.496826 180.171600,414.447632 
	C180.170441,426.778015 180.200745,439.108521 180.149704,451.438690 
	C180.126175,457.124298 177.565674,460.210052 172.983566,460.347748 
	C168.231628,460.490570 165.197983,457.171143 165.171799,451.438629 
	C165.104050,436.609192 164.977905,421.776001 165.260803,406.951691 
	C165.334427,403.093933 163.910980,402.015259 160.519562,401.215118 
	C93.117134,385.312103 45.472984,345.390778 17.070269,282.442535 
	C8.598551,263.666901 4.217525,243.697800 1.385336,223.147369 
	C1.000000,220.629440 1.000000,218.258896 1.000000,215.444168 
	C2.072086,212.591339 1.308349,210.071289 1.224343,207.303040 
	C1.000000,204.629440 1.000000,202.258896 1.000000,199.444168 
	C2.021861,196.920395 1.326663,194.722260 1.221600,192.290070 
	C1.000000,189.958328 1.000000,187.916672 1.000000,185.437500 
	C2.246715,176.332718 2.370265,167.565186 4.410487,158.944885 
	C12.307419,125.578972 27.100334,95.789368 49.616550,69.896805 
	C80.324371,34.584297 118.953934,12.879205 164.548752,3.228408 
	C171.073074,1.847443 177.736801,1.685095 184.689819,1.225479 
	C187.041672,1.000000 189.083328,1.000000 191.562500,1.000000 
	C194.079605,2.021861 196.277740,1.326663 198.709930,1.221600 
	C201.370560,1.000000 203.741104,1.000000 206.555832,1.000000 
	C209.079605,2.021861 211.277740,1.326663 213.709930,1.221600 
	C216.041672,1.000000 218.083328,1.000000 220.562500,1.000000 
	C226.049454,3.169984 231.549088,2.891733 236.822983,3.780683 
	C275.396667,10.282519 309.157166,26.679867 338.438904,52.507828 
	C341.470551,55.181889 343.111847,58.170795 341.382355,62.167713 
	C339.171021,67.278130 333.385986,68.112755 328.541321,63.799786 
	C316.793823,53.341564 303.997864,44.420650 290.059570,37.159477 
	C181.432831,-19.429642 48.342659,42.142433 20.818836,161.702423 
	C-1.091975,256.880188 54.451462,353.544891 147.694748,382.510193 
	C254.499832,415.688354 366.823273,348.579102 387.567108,238.520859 
	C397.732635,184.586700 386.005402,135.117126 353.308563,90.816528 
	C352.221954,89.344322 351.032959,87.927986 350.114166,86.355621 
	C348.056976,82.835205 348.663177,79.527054 351.684387,76.937645 
	C354.940948,74.146515 358.449158,74.373741 361.600922,77.212318 
	C362.941467,78.419655 363.956146,80.001381 365.058868,81.458427 
	C384.781586,107.518944 397.567108,136.608627 402.954224,168.865906 
	C403.458649,171.886230 404.669373,172.632477 407.495056,172.609222 
	C421.493408,172.493927 435.493195,172.542831 449.492462,172.553329 
	C451.487762,172.554825 453.512360,172.467239 455.472107,172.761932 
	C459.538635,173.373398 461.666260,176.129257 461.691711,180.008575 
	C461.715729,183.661209 459.741882,186.584167 455.923126,187.091736 
	C451.986176,187.615036 447.956970,187.536148 443.967346,187.553925 
	C432.468140,187.605209 420.968018,187.632874 409.469513,187.529099 
	C406.674316,187.503891 405.341644,187.822403 405.580231,191.299896 
	C406.310486,201.945663 406.130493,201.958054 416.853638,201.957993 
	C440.519165,201.957855 464.184784,201.995895 487.850067,201.920029 
	C491.823425,201.907303 495.248932,202.692123 496.903595,206.642685 
	C499.155853,212.019928 495.205017,216.926544 488.601013,216.951553 
	C472.935333,217.010880 457.269257,216.970551 441.603363,216.970566 
	C430.937225,216.970566 420.269043,217.085815 409.606171,216.899231 
	C406.484558,216.844589 405.281891,217.614365 405.057556,220.916275 
	C404.349640,231.336670 404.209686,231.328079 414.811493,231.327530 
	C426.644226,231.326920 438.476959,231.320602 450.309692,231.327698 
	C451.807465,231.328598 453.327179,231.245361 454.798798,231.460480 
	C459.046295,232.081390 461.969452,235.413208 461.775543,239.235001 
	C461.577209,243.145187 458.500854,246.234879 454.152039,246.303391 
	C444.988220,246.447754 435.820465,246.341522 426.654327,246.339920 
	C419.821320,246.338730 412.977661,246.568542 406.159607,246.249390 
	C402.471130,246.076721 401.046143,247.287476 400.220428,250.874054 
	C394.482574,275.798065 383.955627,298.611267 369.320068,319.554749 
	C369.129669,319.827148 368.955872,320.111908 368.785583,320.397583 
	C366.772400,323.774841 361.995392,326.546326 362.621521,330.065002 
	C363.175903,333.180298 367.498596,335.642914 370.196472,338.355042 
	C375.485168,343.671692 380.870972,348.894165 386.065460,354.300781 
	C387.763367,356.068024 388.752625,356.248688 390.870331,354.651215 
	C396.723724,350.235779 403.393616,350.515594 408.570831,355.645905 
	C432.009583,378.872375 455.323853,402.224823 478.606140,425.608398 
	C482.132507,429.150085 482.097137,433.721588 479.021942,436.706848 
	C475.795288,439.839142 471.652344,439.745819 467.945190,436.114166 
	C460.564728,428.883911 453.243988,421.588623 446.065735,414.158661 
	C444.038025,412.059814 442.911133,411.644867 440.632751,414.007904 
	C431.959412,423.003448 423.098907,431.823181 414.139130,440.534607 
	C411.984467,442.629547 411.796478,443.724365 414.056824,445.955261 
	C430.424988,462.110321 446.676056,478.384949 462.848541,494.736084 
	C464.930786,496.841248 465.997803,497.132324 468.231049,494.817291 
	C476.907562,485.823334 485.781342,477.015869 494.731476,468.292633 
	C496.829895,466.247345 497.431915,464.926636 494.799103,462.928802 
	C493.099518,461.639099 491.591827,459.971802 490.358246,458.220154 
	C488.176788,455.122589 488.435577,451.917084 490.917084,449.060333 
	C493.297729,446.319763 496.855835,445.420807 499.481323,447.374725 
	C504.870728,451.385620 510.624329,455.408905 512.696655,462.808716 
	C513.000000,464.714355 513.000000,466.428711 513.000000,468.571533 
	C512.390137,473.071838 510.304321,476.181976 507.347992,479.061218 
	C497.372620,488.776276 487.559937,498.660339 477.789276,508.582275 
	C475.176880,511.235077 472.306915,512.770020 468.284790,512.780273 
	C466.285645,513.000000 464.571289,513.000000 462.428467,513.000000 
z"/>
<path fill="#F6F6F6" opacity="1.000000" stroke="none" 
	d="
M184.531342,1.000000 
	C178.657135,3.469433 171.804367,3.161177 165.264160,4.669429 
	C81.059380,24.088093 28.027187,75.608871 5.986845,159.096649 
	C3.775736,167.472229 2.881050,176.092529 1.379304,184.831161 
	C1.000000,125.071388 1.043593,65.142670 0.894257,5.214433 
	C0.885066,1.526310 1.756606,0.900268 5.275916,0.907866 
	C64.871300,1.036533 124.467026,1.000000 184.531342,1.000000 
z"/>
<path fill="#F6F6F6" opacity="1.000000" stroke="none" 
	d="
M468.468658,513.000000 
	C472.052490,511.802643 475.101227,509.188904 478.013550,506.239288 
	C487.669434,496.459778 497.417725,486.771332 507.148926,477.066406 
	C509.392426,474.828918 511.478912,472.506470 512.711121,469.193481 
	C513.000000,482.764984 512.917542,496.530884 513.077087,510.294037 
	C513.105286,512.730347 512.493469,513.082947 510.231659,513.062439 
	C496.467834,512.937317 482.702301,513.000000 468.468658,513.000000 
z"/>
<path fill="#272727" opacity="1.000000" stroke="none" 
	d="
M1.000000,207.444168 
	C2.682923,209.382507 2.054480,211.954239 1.307412,214.755249 
	C1.000000,212.629440 1.000000,210.258896 1.000000,207.444168 
z"/>
<path fill="#2A2A2A" opacity="1.000000" stroke="none" 
	d="
M1.000000,192.437500 
	C2.828693,194.018814 1.993784,196.262512 1.273275,198.736740 
	C1.000000,196.958328 1.000000,194.916672 1.000000,192.437500 
z"/>
<path fill="#222222" opacity="1.000000" stroke="none" 
	d="
M213.562500,1.000000 
	C211.976715,2.771926 209.742432,2.033716 207.264526,1.271979 
	C209.041672,1.000000 211.083328,1.000000 213.562500,1.000000 
z"/>
<path fill="#313131" opacity="1.000000" stroke="none" 
	d="
M198.562500,1.000000 
	C196.952911,2.603907 194.708527,2.084194 192.234039,1.303415 
	C194.041672,1.000000 196.083328,1.000000 198.562500,1.000000 
z"/>
<path fill="#040404" opacity="1.000000" stroke="none" 
	d="
M236.409637,357.517639 
	C297.129028,345.254791 347.470734,293.641418 358.110626,232.998779 
	C372.582947,150.513062 325.223785,74.586029 244.975067,51.617878 
	C169.468231,30.006908 86.967567,70.498322 58.055614,144.637375 
	C35.144051,203.389587 43.906811,257.868134 84.362740,306.737457 
	C86.939598,309.850189 88.367500,312.963196 86.523788,316.725464 
	C84.073288,321.725891 77.853523,322.011444 73.652756,317.308075 
	C61.130711,303.287964 51.128456,287.629517 44.045322,270.216949 
	C5.662610,175.860291 55.493279,69.623978 152.557510,38.723827 
	C247.821198,8.396873 350.648315,68.298775 371.982269,166.549652 
	C392.453125,260.825653 332.218781,353.585754 237.432999,372.519836 
	C187.680710,382.458191 142.007645,371.324066 100.719971,341.994568 
	C95.832817,338.522888 94.745293,334.438354 97.404198,330.562134 
	C100.130798,326.587311 104.571220,326.305878 109.614258,329.940521 
	C139.377350,351.391418 172.629593,361.631775 209.263031,360.882538 
	C218.267426,360.698395 227.169357,359.345947 236.409637,357.517639 
z"/>
<path fill="#090909" opacity="1.000000" stroke="none" 
	d="
M313.260986,214.530472 
	C242.519272,214.580658 172.209442,214.594864 101.899612,214.581512 
	C100.079941,214.581161 98.196053,214.524628 96.453987,214.067734 
	C92.767746,213.100937 90.914642,210.453629 91.036125,206.697601 
	C91.150597,203.158203 93.096748,200.818588 96.544144,199.859970 
	C97.333344,199.640533 98.183197,199.603455 99.009293,199.557983 
	C108.468361,199.037460 108.469635,199.041367 108.469971,189.732925 
	C108.470787,167.240417 108.451111,144.747879 108.479080,122.255402 
	C108.492615,111.369041 112.335800,107.550728 123.219292,107.530937 
	C135.881699,107.507919 148.544189,107.521942 161.206635,107.525345 
	C168.460999,107.527290 168.461288,107.532166 168.462189,100.028419 
	C168.462860,94.363640 168.398163,88.697952 168.477417,83.034279 
	C168.607269,73.755150 172.711487,69.593147 181.940475,69.552773 
	C197.768204,69.483536 213.596512,69.516350 229.424500,69.551178 
	C239.532745,69.573410 243.502991,73.593018 243.525818,83.899849 
	C243.567505,102.726822 243.666321,121.555527 243.437592,140.379807 
	C243.387192,144.526352 244.472839,145.719635 248.653976,145.634857 
	C261.977386,145.364700 275.309753,145.530060 288.638641,145.535980 
	C299.756500,145.540924 303.521759,149.342041 303.536713,160.609940 
	C303.551971,172.106094 303.659149,183.604370 303.461334,195.097168 
	C303.402344,198.524811 304.276215,200.088089 307.873993,199.563599 
	C309.178986,199.373337 310.535736,199.513199 311.868103,199.539948 
	C317.369202,199.650345 320.446564,201.871689 320.968109,206.089081 
	C321.486267,210.278885 319.004150,213.145355 313.260986,214.530472 
z"/>
<path fill="#040404" opacity="1.000000" stroke="none" 
	d="
M141.997803,278.032135 
	C147.971405,277.927185 154.509537,279.629150 158.620422,277.208679 
	C162.725052,274.791962 164.417542,268.257721 167.132843,263.508759 
	C169.195358,259.901520 171.222321,256.273560 173.230270,252.635605 
	C174.992188,249.443451 177.484604,247.525497 181.304321,247.985489 
	C184.910583,248.419769 186.752289,250.852219 187.867416,254.027710 
	C192.651855,267.652130 197.432587,281.277893 202.268143,295.055481 
	C204.344879,293.824677 204.362335,291.681244 205.005814,289.965759 
	C211.361206,273.022369 217.693771,256.069824 223.890671,239.068054 
	C225.266373,235.293671 227.288803,232.365356 231.503296,232.300644 
	C235.688263,232.236420 237.899689,234.963959 239.345459,238.773178 
	C243.764908,250.417313 248.591110,261.909943 252.851028,273.610107 
	C254.180008,277.260193 255.963318,278.239502 259.668762,278.127686 
	C269.159485,277.841217 278.664764,278.004181 288.163971,278.041595 
	C293.975006,278.064453 297.398804,280.868896 297.431854,285.500763 
	C297.465271,290.184967 294.101288,293.005676 288.266663,293.023682 
	C275.934265,293.061768 263.600342,292.931458 251.269836,293.088837 
	C246.401779,293.150970 243.566254,291.119110 241.892456,286.593842 
	C238.855286,278.382599 235.515228,270.283386 231.845032,260.979980 
	C226.974747,274.066193 222.514633,286.048615 218.055817,298.031586 
	C215.392990,305.187866 212.642197,312.313232 210.108063,319.514801 
	C208.816833,323.184265 206.615936,325.757172 202.658691,325.800568 
	C198.448044,325.846710 196.231796,323.128479 194.894821,319.268799 
	C190.113235,305.464844 185.176132,291.714752 180.288193,277.947723 
	C179.849335,276.711670 179.340912,275.500305 178.666336,273.767761 
	C175.829407,278.853851 173.227066,283.456299 170.687592,288.093170 
	C168.836517,291.473022 166.137924,293.100494 162.192047,293.069244 
	C149.860382,292.971497 137.527252,293.075165 125.195045,293.022369 
	C119.768745,292.999146 116.430756,290.123718 116.341835,285.642273 
	C116.253204,281.175049 119.638611,278.135132 125.000214,278.054321 
	C130.498474,277.971436 135.998947,278.033508 141.997803,278.032135 
z"/>
<path fill="#F2F2F2" opacity="1.000000" stroke="none" 
	d="
M389.195984,377.195404 
	C391.796021,374.599640 394.346069,372.417908 396.440002,369.862427 
	C398.538391,367.301514 399.946533,367.779541 401.875183,369.992767 
	C404.160461,372.615234 406.616028,375.133453 409.266602,377.379608 
	C411.436951,379.218811 410.870667,380.335358 409.146515,382.035065 
	C400.041962,391.010590 390.996063,400.046967 382.037781,409.168274 
	C380.281952,410.956055 379.167328,411.288483 377.376770,409.231445 
	C374.351440,405.755798 368.950348,402.776215 368.490417,399.095428 
	C368.057800,395.633240 373.918335,392.648834 376.990173,389.439667 
	C380.892853,385.362549 384.953491,381.436676 389.195984,377.195404 
z"/>
<path fill="#F5F5F5" opacity="1.000000" stroke="none" 
	d="
M430.334900,403.206116 
	C421.244904,412.278168 412.352386,421.035339 403.651337,429.978699 
	C401.574036,432.113861 400.463806,432.371887 398.191956,430.101196 
	C390.217346,422.130646 390.112946,422.237366 397.909576,414.450562 
	C405.090912,407.278320 412.372528,400.201996 419.388702,392.871613 
	C421.595337,390.566132 422.891479,390.622742 424.830078,392.971100 
	C426.622345,395.142273 428.690247,397.117188 430.817871,398.970642 
	C432.629150,400.548553 432.116577,401.709381 430.334900,403.206116 
z"/>
<path fill="#F4F4F4" opacity="1.000000" stroke="none" 
	d="
M365.896179,376.475281 
	C358.357605,368.912201 351.134857,361.561462 343.730774,354.398132 
	C341.722260,352.454895 341.630157,351.374115 343.687103,349.338165 
	C351.869720,341.238892 351.792053,341.160797 360.008698,349.386688 
	C364.824707,354.208099 369.427826,359.271667 374.534393,363.762756 
	C377.832916,366.663727 377.421967,368.504852 374.337433,370.959595 
	C372.269897,372.604950 370.499603,374.634430 368.666016,376.558472 
	C367.817017,377.449432 367.054535,377.565582 365.896179,376.475281 
z"/>
<path fill="#F4F4F4" opacity="1.000000" stroke="none" 
	d="
M183.530670,87.951111 
	C183.295929,85.313454 184.181900,84.543411 186.373779,84.556915 
	C199.365372,84.636925 212.359177,84.707031 225.348892,84.532349 
	C229.341736,84.478645 228.449722,87.042206 228.452545,89.184715 
	C228.483810,112.836922 228.477859,136.489182 228.477219,160.141434 
	C228.476913,171.967529 228.372726,183.794861 228.526123,195.618896 
	C228.565338,198.640854 227.768051,199.651062 224.629395,199.607025 
	C212.472549,199.436401 200.308624,199.382294 188.154526,199.633194 
	C184.366516,199.711380 183.432404,198.592133 183.446518,194.893341 
	C183.581955,159.415497 183.527893,123.936913 183.530670,87.951111 
z"/>
<path fill="#F5F5F5" opacity="1.000000" stroke="none" 
	d="
M147.999573,199.533173 
	C140.838745,199.531845 134.173950,199.396820 127.518730,199.590256 
	C124.560905,199.676224 123.457306,198.918686 123.473625,195.750839 
	C123.592850,172.604843 123.604126,149.457535 123.461365,126.311798 
	C123.441154,123.036591 124.651413,122.500259 127.524864,122.530952 
	C139.846130,122.662613 152.171875,122.720573 164.490768,122.505989 
	C167.970978,122.445366 168.530975,123.766296 168.517258,126.813362 
	C168.414597,149.626465 168.380493,172.440811 168.543381,195.253204 
	C168.569321,198.886459 167.348816,199.762955 163.982849,199.598007 
	C158.833054,199.345627 153.661713,199.532654 147.999573,199.533173 
z"/>
<path fill="#F4F4F4" opacity="1.000000" stroke="none" 
	d="
M263.999756,199.538422 
	C258.173370,199.537109 252.841141,199.387115 247.522705,199.593094 
	C244.576187,199.707199 243.412125,198.946091 243.465851,195.763901 
	C243.642807,185.280411 243.662491,174.789490 243.455383,164.307114 
	C243.390656,161.031799 244.638474,160.497910 247.522720,160.530167 
	C259.838623,160.667969 272.157837,160.669083 284.473785,160.535217 
	C287.358673,160.503876 288.609100,161.041855 288.544403,164.317352 
	C288.337372,174.799759 288.341248,185.291168 288.540192,195.773849 
	C288.601837,199.022263 287.357483,199.660736 284.472687,199.588715 
	C277.818756,199.422592 271.157806,199.537506 263.999756,199.538422 
z"/>
</svg>